HIERARCHY
ROOT hip
{
  OFFSET 0 0 0
  CHANNELS 6 Xposition Yposition Zposition Zrotation Yrotation Xrotation
  JOINT abdomen
  {
    OFFSET 0 20.6881 -0.73152
    CHANNELS 3 Zrotation Xrotation Yrotation
    JOINT chest
    {
      OFFSET 0 11.7043 -0.48768
      CHANNELS 3 Zrotation Xrotation Yrotation
      JOINT neck
      {
        OFFSET 0 22.1894 -2.19456
        CHANNELS 3 Zrotation Xrotation Yrotation
        JOINT head
        {
          OFFSET -0.24384 7.07133 1.2192
          CHANNELS 3 Zrotation Xrotation Yrotation
          JOINT leftEye
          {
            OFFSET 4.14528 8.04674 8.04672
            CHANNELS 3 Zrotation Xrotation Yrotation
            End Site
            {
              OFFSET 1 0 0
            }
          }
          JOINT rightEye
          {
            OFFSET -3.6576 8.04674 8.04672
            CHANNELS 3 Zrotation Xrotation Yrotation
            End Site
            {
              OFFSET 1 0 0
            }
          }
        }
      }
      JOINT rCollar
      {
        OFFSET -2.68224 19.2634 -4.8768
        CHANNELS 3 Zrotation Xrotation Yrotation
        JOINT rShldr
        {
          OFFSET -8.77824 -1.95073 1.46304
          CHANNELS 3 Zrotation Xrotation Yrotation
          JOINT rForeArm
          {
            OFFSET -28.1742 -1.7115 0.48768
            CHANNELS 3 Zrotation Xrotation Yrotation
            JOINT rHand
            {
              OFFSET -22.5879 0.773209 7.07136
              CHANNELS 3 Zrotation Xrotation Yrotation
              JOINT rThumb1
              {
                OFFSET -1.2192 -0.487915 3.41376
                CHANNELS 3 Zrotation Xrotation Yrotation
                JOINT rThumb2
                {
                  OFFSET -3.37035 -0.52449 3.41376
                  CHANNELS 3 Zrotation Xrotation Yrotation
                  End Site
                  {
                    OFFSET -1.78271 -1.18214 1.43049
                  }
                }
              }
              JOINT rIndex1
              {
                OFFSET -7.75947 0.938293 5.60832
                CHANNELS 3 Zrotation Xrotation Yrotation
                JOINT rIndex2
                {
                  OFFSET -2.54057 -0.884171 1.56538
                  CHANNELS 3 Zrotation Xrotation Yrotation
                  End Site
                  {
                    OFFSET -1.62519 -0.234802 1.16502
                  }
                }
              }
              JOINT rMid1
              {
                OFFSET -8.24714 1.18213 3.41376
                CHANNELS 3 Zrotation Xrotation Yrotation
                JOINT rMid2
                {
                  OFFSET -3.10165 -0.590103 1.0647
                  CHANNELS 3 Zrotation Xrotation Yrotation
                  End Site
                  {
                    OFFSET -2.48547 -0.328903 0.83742
                  }
                }
              }
              JOINT rRing1
              {
                OFFSET -8.82822 0.546677 1.51678
                CHANNELS 3 Zrotation Xrotation Yrotation
                JOINT rRing2
                {
                  OFFSET -2.60934 -0.819778 -0.0198488
                  CHANNELS 3 Zrotation Xrotation Yrotation
                  End Site
                  {
                    OFFSET -2.33842 -0.294052 0.168128
                  }
                }
              }
              JOINT rPinky1
              {
                OFFSET -8.27202 -0.0477905 -0.4584
                CHANNELS 3 Zrotation Xrotation Yrotation
                JOINT rPinky2
                {
                  OFFSET -1.82734 -0.647385 -0.700984
                  CHANNELS 3 Zrotation Xrotation Yrotation
                  End Site
                  {
                    OFFSET -1.69225 -0.51767 -0.607171
                  }
                }
              }
            }
          }
        }
      }
      JOINT lCollar
      {
        OFFSET 2.68224 19.2634 -4.8768
        CHANNELS 3 Zrotation Xrotation Yrotation
        JOINT lShldr
        {
          OFFSET 8.77824 -1.95073 1.46304
          CHANNELS 3 Zrotation Xrotation Yrotation
          JOINT lForeArm
          {
            OFFSET 28.1742 -1.7115 0.48768
            CHANNELS 3 Zrotation Xrotation Yrotation
            JOINT lHand
            {
              OFFSET 22.5879 0.773209 7.07136
              CHANNELS 3 Zrotation Xrotation Yrotation
              JOINT lThumb1
              {
                OFFSET 1.2192 -0.487915 3.41376
                CHANNELS 3 Zrotation Xrotation Yrotation
                JOINT lThumb2
                {
                  OFFSET 3.37035 -0.52449 3.41376
                  CHANNELS 3 Zrotation Xrotation Yrotation
                  End Site
                  {
                    OFFSET 1.78271 -1.18214 1.43049
                  }
                }
              }
              JOINT lIndex1
              {
                OFFSET 7.75947 0.938293 5.60832
                CHANNELS 3 Zrotation Xrotation Yrotation
                JOINT lIndex2
                {
                  OFFSET 2.54057 -0.884171 1.56538
                  CHANNELS 3 Zrotation Xrotation Yrotation
                  End Site
                  {
                    OFFSET 1.62519 -0.234802 1.16502
                  }
                }
              }
              JOINT lMid1
              {
                OFFSET 8.24714 1.18213 3.41376
                CHANNELS 3 Zrotation Xrotation Yrotation
                JOINT lMid2
                {
                  OFFSET 3.10165 -0.590103 1.0647
                  CHANNELS 3 Zrotation Xrotation Yrotation
                  End Site
                  {
                    OFFSET 2.48547 -0.328903 0.83742
                  }
                }
              }
              JOINT lRing1
              {
                OFFSET 8.82822 0.546677 1.51678
                CHANNELS 3 Zrotation Xrotation Yrotation
                JOINT lRing2
                {
                  OFFSET 2.60934 -0.819778 -0.0198488
                  CHANNELS 3 Zrotation Xrotation Yrotation
                  End Site
                  {
                    OFFSET 2.33842 -0.294052 0.168128
                  }
                }
              }
              JOINT lPinky1
              {
                OFFSET 8.27202 -0.0477905 -0.4584
                CHANNELS 3 Zrotation Xrotation Yrotation
                JOINT lPinky2
                {
                  OFFSET 1.82734 -0.647385 -0.700984
                  CHANNELS 3 Zrotation Xrotation Yrotation
                  End Site
                  {
                    OFFSET 1.69225 -0.51767 -0.607171
                  }
                }
              }
            }
          }
        }
      }
    }
  }
  JOINT rButtock
  {
    OFFSET -8.77824 4.35084 1.2192
    CHANNELS 3 Zrotation Xrotation Yrotation
    JOINT rThigh
    {
      OFFSET 0 -1.70687 -2.19456
      CHANNELS 3 Zrotation Xrotation Yrotation
      JOINT rShin
      {
        OFFSET 0 -36.8199 0.73152
        CHANNELS 3 Zrotation Xrotation Yrotation
        JOINT rFoot
        {
          OFFSET 0.73152 -45.1104 -5.12064
          CHANNELS 3 Zrotation Xrotation Yrotation
          End Site
          {
            OFFSET -1.1221 -3.69964 12.103
          }
        }
      }
    }
  }
  JOINT lButtock
  {
    OFFSET 8.77824 4.35084 1.2192
    CHANNELS 3 Zrotation Xrotation Yrotation
    JOINT lThigh
    {
      OFFSET 0 -1.70687 -2.19456
      CHANNELS 3 Zrotation Xrotation Yrotation
      JOINT lShin
      {
        OFFSET 0 -36.8199 0.73152
        CHANNELS 3 Zrotation Xrotation Yrotation
        JOINT lFoot
        {
          OFFSET -0.73152 -45.1104 -5.12064
          CHANNELS 3 Zrotation Xrotation Yrotation
          End Site
          {
            OFFSET 1.1221 -3.69964 12.103
          }
        }
      }
    }
  }
}
MOTION
Frames:	4
Frame Time:	0.03333
3.515783543191339 45.253753025188814 38.87174855737146 100.75899505615234 -48.45379638671875 -71.22329711914062 -14.799899101257324 5.404580116271973 14.117198944091797 -5.689249515533447 -4.685830116271973 3.4367198944091797 2.7975502014160156 9.289460182189941 8.64778995513916 -15.714497566223145 -10.809000015258789 14.991400718688965 -0.0 0.0 -0.0 -0.0 0.0 -0.0 -6.361109013662547e-14 1.7811105238255132e-13 -2.035554884372015e-13 8.181695938110352 42.227596282958984 41.544795989990234 -28.15489959716797 -31.636098861694336 69.87109375 -0.13044598698616028 10.23750114440918 1.4544800519943237 -1.1614749162447424e-09 3.5949425658543532e-09 6.667523755332638e-10 -2.0010648693613575e-09 6.235566285539562e-09 1.1723587656220502e-09 -1.1614749162447424e-09 3.5949425658543532e-09 6.667396634796319e-10 7.7309088706970215 5.474880218505859 0.41731396317481995 -1.1614875727872231e-09 3.5949425658543532e-09 6.667459917508722e-10 2.9055399894714355 0.9651829600334167 0.10290198773145676 -1.1614749162447424e-09 3.5949425658543532e-09 6.667459917508722e-10 10.27859878540039 0.73180091381073 0.025912299752235413 -1.1614875727872231e-09 3.594955222396834e-09 6.667587038045042e-10 2.2216696739196777 -0.7334870100021362 -0.2089199721813202 -6.361109013662547e-14 1.7811105238255132e-13 -2.035554884372015e-13 -63.18789291381836 -13.886800765991211 8.959380149841309 26.925996780395508 -26.0961971282959 -61.04489517211914 2.053879499435425 -37.121097564697266 6.107319355010986 3.3711333724539827e-10 2.0898405228564343e-09 9.425891178693746e-10 5.631489718993521e-10 3.6682861193071403e-09 1.619512857153893e-09 3.371005974361907e-10 2.08985340144352e-09 9.425827895981342e-10 -7.7309088706970215 5.474880218505859 -0.41731396317481995 3.3711333724539827e-10 2.089815209771473e-09 9.42595446140615e-10 -2.9055399894714355 0.9651829600334167 -0.10290198773145676 3.3711333724539827e-10 2.08985340144352e-09 9.425891178693746e-10 -10.27859878540039 0.73180091381073 -0.025912299752235413 3.3712604929903023e-10 2.08985340144352e-09 9.425827895981342e-10 -2.2216696739196777 -0.7334870100021362 0.2089199721813202 -0.0 0.0 -0.0 -63.54469680786133 -43.291099548339844 -28.245298385620117 0.0082120131701231 30.698501586914062 2.2496299743652344 1.055629849433899 -2.307069778442383 -25.392898559570312 -0.0 0.0 -0.0 138.88800048828125 -0.8954958915710449 114.52799224853516 177.69497680664062 52.60979461669922 178.83798217773438 -4.863560199737549 -1.7073699235916138 -5.371269226074219
3.5234611777439557 44.23738331065048 38.83278742745304 104.18399047851562 -50.3616943359375 -73.03389739990234 -11.657100677490234 2.586749792098999 13.929497718811035 -6.082969665527344 -3.4872498512268066 3.5299699306488037 2.8689095973968506 9.501580238342285 9.029410362243652 -15.323100090026855 -10.894899368286133 15.759398460388184 -0.0 0.0 -0.0 -0.0 0.0 -0.0 3.5622210476510263e-13 1.030499687318387e-12 -2.2263881547818914e-13 7.002240180969238 44.20309829711914 42.86799240112305 -28.216800689697266 -32.1094970703125 70.62319946289062 -0.13669700920581818 10.492899894714355 1.4915099143981934 -2.6689050969253003e-09 7.385349221067372e-09 9.60463819588142e-10 -4.600150482758636e-09 1.280669348346919e-08 1.6986387851858353e-09 -2.6689050969253003e-09 7.385349221067372e-09 9.604511630456614e-10 7.7309088706970215 5.474880218505859 0.41731396317481995 -2.6689050969253003e-09 7.385362099654458e-09 9.604574913169017e-10 2.9055399894714355 0.9651829600334167 0.10290198773145676 -2.6688924403828196e-09 7.385349221067372e-09 9.60463819588142e-10 10.27859878540039 0.73180091381073 0.025912299752235413 -2.6689050969253003e-09 7.385362099654458e-09 9.60470258881685e-10 2.2216696739196777 -0.7334870100021362 -0.2089199721813202 3.5622210476510263e-13 1.030499687318387e-12 -2.2263881547818914e-13 -63.202392578125 -12.789700508117676 9.452959060668945 27.15029525756836 -26.8528995513916 -62.231597900390625 1.9062094688415527 -36.033897399902344 5.8656792640686035 -1.7721795142477959e-09 8.402325057943472e-09 4.91573781680188e-10 -3.0580649124090087e-09 1.452200493190503e-08 7.791149947422582e-10 -1.772192281812579e-09 8.402325057943472e-09 4.915673978977964e-10 -7.7309088706970215 5.474880218505859 -0.41731396317481995 -1.7721795142477959e-09 8.402312623445596e-09 4.915801654625795e-10 -2.9055399894714355 0.9651829600334167 -0.10290198773145676 -1.772192281812579e-09 8.402325057943472e-09 4.915673978977964e-10 -10.27859878540039 0.73180091381073 -0.025912299752235413 -1.7721795142477959e-09 8.402325057943472e-09 4.91561069626556e-10 -2.2216696739196777 -0.7334870100021362 0.2089199721813202 -0.0 0.0 -0.0 -65.80400085449219 -48.36980056762695 -34.897701263427734 -0.03703630343079567 35.675201416015625 2.294950008392334 0.8669957518577576 -3.170419931411743 -21.751901626586914 -0.0 0.0 -0.0 138.45098876953125 3.1674301624298096 120.02599334716797 177.79598999023438 48.1864013671875 178.8389892578125 -4.346990585327148 -0.2744099795818329 -4.27318000793457
3.5045535699400805 43.270631505337704 38.79439925635749 108.52099609375 -52.316402435302734 -75.71910095214844 -8.678009986877441 -0.04581649601459503 13.9739990234375 -6.683589458465576 -2.1805601119995117 3.6719300746917725 2.796990156173706 9.74838924407959 9.534379005432129 -14.883000373840332 -11.290499687194824 16.760498046875 -0.0 0.0 -0.0 -0.0 0.0 -0.0 1.0941106961398495e-12 2.060999374636774e-12 1.6538883435522622e-13 5.908160209655762 46.12089538574219 44.170692443847656 -28.279996871948242 -32.68259811401367 71.55139923095703 -0.1558689922094345 11.190699577331543 1.593209981918335 -3.320511643423174e-09 7.0410735020232096e-09 -4.615620732839609e-11 -5.731155550137146e-09 1.2216293754363505e-08 -4.30647080496005e-11 -3.320511643423174e-09 7.0410735020232096e-09 -4.615620732839609e-11 7.7309088706970215 5.474880218505859 0.41731396317481995 -3.320511643423174e-09 7.0410735020232096e-09 -4.6162566824659024e-11 2.9055399894714355 0.9651829600334167 0.10290198773145676 -3.3204989868806933e-09 7.0410735020232096e-09 -4.615620732839609e-11 10.27859878540039 0.73180091381073 0.025912299752235413 -3.3205242999656548e-09 7.0410735020232096e-09 -4.614348486642328e-11 2.2216696739196777 -0.7334870100021362 -0.2089199721813202 1.0941106961398495e-12 2.060999374636774e-12 1.5902772534156367e-13 -63.125396728515625 -11.9173002243042 10.046799659729004 27.39520263671875 -27.76799964904785 -63.710697174072266 1.6294798851013184 -33.727901458740234 5.381740093231201 -5.345634157549739e-09 1.9278003193790028e-08 -3.0877969070530753e-09 -9.126257971558971e-09 3.271579274155556e-08 -5.475229158946604e-09 -5.345634157549739e-09 1.9278003193790028e-08 -3.0877969070530753e-09 -7.7309088706970215 5.474880218505859 -0.41731396317481995 -5.345634157549739e-09 1.9278003193790028e-08 -3.0877969070530753e-09 -2.9055399894714355 0.9651829600334167 -0.10290198773145676 -5.345634157549739e-09 1.9278003193790028e-08 -3.087809563595556e-09 -10.27859878540039 0.73180091381073 -0.025912299752235413 -5.345621723051863e-09 1.9278003193790028e-08 -3.0878222201380368e-09 -2.2216696739196777 -0.7334870100021362 0.2089199721813202 -0.0 0.0 -0.0 -68.61819458007812 -53.01940155029297 -42.29269790649414 -0.10105400532484055 39.821102142333984 2.233020067214966 0.5963967442512512 -3.7554402351379395 -18.36319923400879 -0.0 0.0 -0.0 137.45199584960938 3.1040098667144775 125.11998748779297 177.83299255371094 45.88180160522461 178.8879852294922 -4.372269630432129 0.632606029510498 -4.941039562225342
3.31169597500963 42.34719675974115 38.837371091365824 113.77699279785156 -54.37249755859375 -80.04129791259766 -7.544839859008789 2.743269681930542 13.820798873901367 -6.927978992462158 -2.71655011177063 3.5557901859283447 2.7622201442718506 10.023599624633789 9.968449592590332 -14.156998634338379 -11.778499603271484 17.641298294067383 -0.0 0.0 -0.0 -0.0 0.0 -0.0 5.979442201792251e-13 1.2340551757555884e-12 1.0177774421860075e-13 5.834129333496094 47.872596740722656 44.63469696044922 -28.328699111938477 -33.217899322509766 72.42720031738281 -0.1596989929676056 11.3149995803833 1.6114498376846313 -5.875883668515769e-10 -1.0846962911204017e-10 -1.425340068195169e-09 -1.0209961764928721e-09 -1.616485001409984e-10 -2.4553181710018634e-09 -5.875756547979449e-10 -1.0846962911204017e-10 -1.425340068195169e-09 7.7309088706970215 5.474880218505859 0.41731396317481995 -5.875883668515769e-10 -1.0846962911204017e-10 -1.4253527247376496e-09 2.9055399894714355 0.9651829600334167 0.10290198773145676 -5.875756547979449e-10 -1.0846962911204017e-10 -1.425340068195169e-09 10.27859878540039 0.73180091381073 0.025912299752235413 -5.875883668515769e-10 -1.0846962911204017e-10 -1.4253273006303857e-09 2.2216696739196777 -0.7334870100021362 -0.2089199721813202 5.979442201792251e-13 1.2340551757555884e-12 1.0177774421860075e-13 -62.76949691772461 -10.895400047302246 10.373499870300293 27.669095993041992 -28.89950180053711 -65.46820068359375 1.52830970287323 -32.764801025390625 5.190509796142578 -3.120582015014861e-09 1.6273803638000572e-08 -2.6510557638026455e-10 -5.367033040215574e-09 2.780040020411434e-08 -5.389513280107394e-10 -3.120582015014861e-09 1.6273803638000572e-08 -2.6509922035344857e-10 -7.7309088706970215 5.474880218505859 -0.41731396317481995 -3.120582015014861e-09 1.6273803638000572e-08 -2.6511193240708053e-10 -2.9055399894714355 0.9651829600334167 -0.10290198773145676 -3.120582015014861e-09 1.6273803638000572e-08 -2.6511193240708053e-10 -10.27859878540039 0.73180091381073 -0.025912299752235413 -3.1205693584723804e-09 1.6273803638000572e-08 -2.651246722162881e-10 -2.2216696739196777 -0.7334870100021362 0.2089199721813202 -0.0 0.0 -0.0 -67.4374008178711 -54.05590057373047 -43.95940017700195 -0.16400101780891418 42.59700393676758 2.1210498809814453 0.35829803347587585 -4.592170238494873 -15.359197616577148 -0.0 0.0 -0.0 133.9359893798828 -3.1658899784088135 126.53199005126953 177.82398986816406 46.26289749145508 179.0129852294922 -4.291589260101318 -0.47911006212234497 -5.218279838562012
